<svg width="79" height="78" viewBox="0 0 79 78" fill="none" xmlns="http://www.w3.org/2000/svg">
<path d="M16.644 59.036L64 59M40 3C47.672 3 54.08 8.4 55.64 15.604C57.6684 15.0551 59.7851 14.911 61.8691 15.1801C63.9532 15.4492 65.9638 16.1262 67.7863 17.1723C69.6087 18.2185 71.2072 19.6133 72.4906 21.2773C73.774 22.9412 74.7171 24.8416 75.266 26.87C75.8149 28.8984 75.959 31.0151 75.6899 33.0991C75.4208 35.1832 74.7438 37.1938 73.6977 39.0163C72.6515 40.8387 71.2567 42.4373 69.5927 43.7206C67.9288 45.004 66.0284 45.9471 64 46.496V75H16V46.496C13.9235 45.9908 11.9693 45.0749 10.2524 43.8024C8.53555 42.5299 7.09085 40.9265 6.00352 39.0867C4.91619 37.247 4.20823 35.2082 3.92138 33.0905C3.63454 30.9728 3.77461 28.8191 4.33336 26.7564C4.8921 24.6937 5.85819 22.7638 7.17467 21.0804C8.49115 19.397 10.1314 17.9942 11.9986 16.9548C13.8658 15.9154 15.9223 15.2604 18.0467 15.0284C20.1711 14.7964 22.3204 14.9921 24.368 15.604C25.1427 12.0339 27.116 8.83656 29.9599 6.54355C32.8038 4.25054 36.3468 3.00005 40 3Z" stroke="#550312" stroke-width="6" stroke-linecap="round" stroke-linejoin="round"/>
</svg>
