<svg width="80" height="80" viewBox="0 0 80 80" fill="none" xmlns="http://www.w3.org/2000/svg">
<path d="M40 3.10598e-07C35.5493 -0.000747238 31.203 1.34793 27.5346 3.86806C23.8661 6.38819 21.048 9.96133 19.452 14.116C17.7928 13.6376 16.1107 13.2424 14.412 12.932C10.9185 12.2995 7.37429 11.9889 3.824 12.004L3.136 12.02L2.944 12.028C2.19417 12.0579 1.48191 12.3642 0.944312 12.8877C0.406711 13.4113 0.0817595 14.1152 0.0319996 14.864L0.0279999 14.944L0.0200005 15.14C-0.0073502 16.1853 -0.000680499 17.2312 0.04 18.276C0.12 20.328 0.344 23.184 0.932 26.412C1.468 29.352 2.324 32.672 3.692 36H3C2.20435 36 1.44129 36.3161 0.878679 36.8787C0.31607 37.4413 0 38.2043 0 39V40C0 62.092 17.908 80 40 80C62.092 80 80 62.092 80 40V39C80 38.2043 79.6839 37.4413 79.1213 36.8787C78.5587 36.3161 77.7956 36 77 36H75.988C76.101 31.5855 74.713 27.2632 72.0507 23.7399C69.3885 20.2167 65.6096 17.7009 61.332 16.604C60.1296 11.8572 57.3785 7.64696 53.5141 4.63962C49.6497 1.63227 44.8927 -0.000396225 39.996 3.10598e-07H40ZM25.092 16.16C26.2631 13.1723 28.3053 10.6057 30.9536 8.79332C33.6018 6.98095 36.7337 6.00656 39.9427 5.99664C43.1517 5.98672 46.2896 6.94173 48.949 8.73769C51.6084 10.5337 53.6664 13.0876 54.856 16.068C51.4163 16.3571 48.1149 17.5535 45.2885 19.5352C42.4622 21.5168 40.2122 24.2128 38.768 27.348C37.6892 25.7499 36.461 24.2578 35.1 22.892C32.104 19.896 28.62 17.732 25.092 16.16ZM70 35.5C70 35.668 69.996 35.836 69.988 36H43.072L43 35.8V35.5C43 31.9196 44.4223 28.4858 46.9541 25.9541C49.4858 23.4223 52.9196 22 56.5 22C60.0804 22 63.5142 23.4223 66.0459 25.9541C68.5777 28.4858 70 31.9196 70 35.5ZM30.856 27.136C33.428 29.704 35.292 32.796 36.636 36H28.236L21.12 28.88C20.8454 28.5853 20.5142 28.3488 20.1462 28.1849C19.7782 28.0209 19.3809 27.9327 18.9781 27.9256C18.5753 27.9185 18.1752 27.9926 17.8016 28.1435C17.4281 28.2944 17.0887 28.519 16.8038 28.8038C16.519 29.0887 16.2944 29.4281 16.1435 29.8016C15.9926 30.1752 15.9185 30.5753 15.9256 30.9781C15.9327 31.3809 16.0209 31.7782 16.1849 32.1462C16.3488 32.5141 16.5853 32.8454 16.88 33.12L19.76 36H10.28C8.52 32.496 7.464 28.748 6.84 25.332C6.40239 22.9245 6.13506 20.4891 6.04 18.044V18.036H6.044C7.884 18.104 10.448 18.308 13.332 18.836C19.172 19.904 25.972 22.236 30.864 27.136H30.856ZM11.152 58H68.848C65.7944 62.8976 61.5434 66.9366 56.4961 69.736C51.4488 72.5354 45.7716 74.0029 40 74C34.2284 74.0029 28.5512 72.5354 23.5039 69.736C18.4566 66.9366 14.2056 62.8976 11.152 58ZM6.056 42H73.94C73.744 45.4215 73.0292 48.7933 71.82 52H8.18C6.97111 48.7932 6.25629 45.4214 6.06 42H6.056ZM2.872 12.032H2.944H2.872Z" fill="#550312"/>
</svg>
